<?xml version="1.0" standalone="no"?>
<!DOCTYPE svg PUBLIC "-//W3C//DTD SVG 20010904//EN"
 "http://www.w3.org/TR/2001/REC-SVG-20010904/DTD/svg10.dtd">
<svg version="1.0" xmlns="http://www.w3.org/2000/svg"
 width="700.000000pt" height="700.000000pt" viewBox="0 0 700.000000 700.000000"
 preserveAspectRatio="xMidYMid meet">
<metadata>
Created by potrace 1.14, written by Peter Selinger 2001-2017
</metadata>
<g transform="translate(0.000000,700.000000) scale(0.100000,-0.100000)"
fill="#000000" stroke="none">
<path d="M835 6993 c-392 -54 -710 -337 -807 -719 l-23 -89 0 -2685 0 -2685
22 -88 c80 -312 312 -568 611 -672 167 -58 7 -56 2902 -52 2496 2 2659 3 2720
20 371 100 617 346 717 717 17 61 18 224 20 2720 4 2895 6 2735 -52 2902 -104
297 -354 526 -667 610 l-83 23 -2665 1 c-1466 1 -2678 -1 -2695 -3z m5328
-653 c65 -24 136 -91 169 -158 l23 -47 0 -2635 0 -2635 -23 -47 c-30 -60 -90
-120 -150 -150 l-47 -23 -2635 0 -2635 0 -47 23 c-60 30 -120 90 -150 150
l-23 47 -3 2615 c-2 1967 0 2626 9 2658 23 84 108 174 196 207 32 11 431 14
2650 14 2596 1 2613 1 2666 -19z"/>
<path d="M1790 5695 c-300 -67 -515 -352 -497 -657 21 -338 298 -598 636 -598
337 0 612 261 629 596 9 186 -43 332 -164 463 -124 134 -263 199 -444 207 -61
2 -118 -1 -160 -11z"/>
<path d="M4945 5695 c-138 -30 -236 -87 -338 -194 -120 -128 -174 -279 -165
-465 13 -257 173 -470 426 -564 91 -34 239 -41 346 -18 153 34 303 139 392
274 86 129 122 320 90 472 -72 342 -416 569 -751 495z"/>
<path d="M3415 4131 c-151 -25 -251 -76 -360 -186 -132 -131 -188 -265 -188
-445 0 -180 56 -314 188 -445 131 -132 265 -188 445 -188 180 0 314 56 445
188 132 131 188 265 188 445 0 180 -56 314 -188 445 -120 121 -242 177 -410
189 -38 2 -92 1 -120 -3z"/>
<path d="M1790 2565 c-300 -67 -515 -352 -497 -657 21 -338 298 -598 636 -598
337 0 612 261 629 596 9 186 -43 332 -164 463 -124 134 -263 199 -444 207 -61
2 -118 -1 -160 -11z"/>
<path d="M4945 2565 c-138 -30 -237 -87 -337 -193 -112 -119 -168 -263 -168
-431 0 -291 197 -541 485 -616 133 -34 321 -10 448 57 75 40 183 140 233 216
86 129 122 320 90 472 -72 342 -416 569 -751 495z"/>
</g>
</svg>
